<?xml version="1.0" encoding="UTF-8" standalone="no"?>
<!-- Created with Inkscape (http://www.inkscape.org/) -->

<svg
   xmlns:dc="http://purl.org/dc/elements/1.1/"
   xmlns:cc="http://creativecommons.org/ns#"
   xmlns:rdf="http://www.w3.org/1999/02/22-rdf-syntax-ns#"
   xmlns:svg="http://www.w3.org/2000/svg"
   xmlns="http://www.w3.org/2000/svg"
   xmlns:sodipodi="http://sodipodi.sourceforge.net/DTD/sodipodi-0.dtd"
   xmlns:inkscape="http://www.inkscape.org/namespaces/inkscape"
   width="184.24519mm"
   height="32.764481mm"
   viewBox="0 0 184.24519 32.76448"
   version="1.1"
   id="svg8"
   sodipodi:docname="voila-gallery.svg"
   inkscape:version="0.92.4 (5da689c313, 2019-01-14)"
   inkscape:export-filename="/home/jtp/git/voila-gallery/gallery/tljh-voila-gallery/tljh_voila_gallery/static/voila-gallery-logo.png"
   inkscape:export-xdpi="49.629517"
   inkscape:export-ydpi="49.629517">
  <defs
     id="defs2" />
  <sodipodi:namedview
     id="base"
     pagecolor="#ffffff"
     bordercolor="#666666"
     borderopacity="1.0"
     inkscape:pageopacity="0.0"
     inkscape:pageshadow="2"
     inkscape:zoom="1.4"
     inkscape:cx="484.83507"
     inkscape:cy="-91.599797"
     inkscape:document-units="mm"
     inkscape:current-layer="layer1"
     showgrid="false"
     fit-margin-top="0"
     fit-margin-left="0"
     fit-margin-right="0"
     fit-margin-bottom="0"
     inkscape:lockguides="true"
     inkscape:window-width="2048"
     inkscape:window-height="1115"
     inkscape:window-x="0"
     inkscape:window-y="0"
     inkscape:window-maximized="1"
     showguides="false" />
  <metadata
     id="metadata5">
    <rdf:RDF>
      <cc:Work
         rdf:about="">
        <dc:format>image/svg+xml</dc:format>
        <dc:type
           rdf:resource="http://purl.org/dc/dcmitype/StillImage" />
        <dc:title></dc:title>
      </cc:Work>
    </rdf:RDF>
  </metadata>
  <g
     inkscape:label="Layer 1"
     inkscape:groupmode="layer"
     id="layer1"
     transform="translate(-65.806244,-91.600204)">
    <g
       aria-label="[voilà]"
       style="font-style:normal;font-variant:normal;font-weight:normal;font-stretch:normal;font-size:10.58333302px;line-height:1.25;font-family:Manjari;-inkscape-font-specification:Manjari;letter-spacing:0px;word-spacing:0px;fill:#000000;fill-opacity:1;stroke:none;stroke-width:0.26458332"
       id="text817">
      <path
         d="m 67.356537,94.886826 c -0.852661,0 -1.550293,0.697631 -1.550293,1.550293 l 0.03101,25.781371 c 0,0.85266 0.697632,1.55029 1.550293,1.55029 l 6.867798,0.0155 h 0.0155 c 0.852661,0 1.550292,-0.69764 1.550292,-1.5503 0,-0.85266 -0.697631,-1.55029 -1.550292,-1.55029 h -0.0155 l -5.317505,-0.0155 -0.03101,-22.680789 h 5.348511 c 0.852661,0 1.550293,-0.697631 1.550293,-1.550292 0,-0.852662 -0.697632,-1.550293 -1.550293,-1.550293 z"
         style="font-style:normal;font-variant:normal;font-weight:bold;font-stretch:normal;font-family:Manjari;-inkscape-font-specification:'Manjari Bold';fill:#f37726;fill-opacity:1"
         id="path4799"
         inkscape:export-filename="/home/jtp/git/voila-gallery/gallery/tljh-voila-gallery/tljh_voila_gallery/static/voila-logo.png"
         inkscape:export-xdpi="43"
         inkscape:export-ydpi="43"
         inkscape:connector-curvature="0" />
      <path
         d="m 76.048512,101.52208 c 0,0.12402 0.03101,0.34106 0.09302,0.46509 l 6.201172,14.04565 c 0.155029,0.35657 0.604614,0.65112 0.992187,0.65112 0.387574,0 0.837159,-0.29455 0.992188,-0.65112 l 6.201172,-13.99914 c 0.06201,-0.12403 0.10852,-0.32557 0.10852,-0.44959 0,-0.60461 -0.480591,-1.0852 -1.085205,-1.0852 -0.403076,0 -0.852661,0.31005 -1.00769,0.66662 l -5.193482,11.75122 -5.224487,-11.81323 c -0.155029,-0.37207 -0.589111,-0.66663 -0.992187,-0.66663 -0.604615,0 -1.085206,0.4961 -1.085206,1.08521 z"
         style="fill:#4e4e4e;fill-opacity:1"
         id="path4801"
         inkscape:export-filename="/home/jtp/git/voila-gallery/gallery/tljh-voila-gallery/tljh_voila_gallery/static/voila-logo.png"
         inkscape:export-xdpi="43"
         inkscape:export-ydpi="43"
         inkscape:connector-curvature="0" />
      <path
         d="m 98.61561,100.42137 c -4.325317,0 -7.735962,3.81372 -7.735962,8.12354 0,4.34082 3.395142,8.13903 7.797974,8.13903 4.340818,-0.031 7.704958,-3.82922 7.704958,-8.13903 0,-4.32532 -3.42615,-8.12354 -7.76697,-8.12354 z m 0,2.32544 c 3.06958,0 5.44153,2.72852 5.44153,5.7981 0,3.06958 -2.34094,5.78259 -5.395021,5.8136 -3.116089,0 -5.457031,-2.74402 -5.457031,-5.84461 0,-3.05408 2.371948,-5.76709 5.410522,-5.76709 z"
         style="fill:#4e4e4e;fill-opacity:1"
         id="path4803"
         inkscape:export-filename="/home/jtp/git/voila-gallery/gallery/tljh-voila-gallery/tljh_voila_gallery/static/voila-logo.png"
         inkscape:export-xdpi="43"
         inkscape:export-ydpi="43"
         inkscape:connector-curvature="0" />
      <path
         d="m 108.70285,101.44456 0.031,14.06116 c 0,0.65113 0.51159,1.17822 1.16272,1.17822 0.63562,0 1.16272,-0.52709 1.16272,-1.16272 l -0.031,-13.90612 c 0,-0.69763 -0.5271,-1.17823 -1.25574,-1.17823 -0.43408,0 -1.0697,0.46509 -1.0697,1.00769 z"
         style="fill:#4e4e4e;fill-opacity:1"
         id="path4805"
         inkscape:connector-curvature="0"
         sodipodi:nodetypes="ccsccsc"
         inkscape:export-filename="/home/jtp/git/voila-gallery/gallery/tljh-voila-gallery/tljh_voila_gallery/static/voila-logo.png"
         inkscape:export-xdpi="43"
         inkscape:export-ydpi="43" />
      <path
         d="m 114.99187,94.871323 c -0.58911,0 -1.0852,0.604614 -1.0852,1.209228 v 19.487179 c 0,0.68213 0.5426,1.16272 1.25573,1.16272 0.44959,0 1.06971,-0.44958 1.06971,-0.99218 V 96.049545 c 0,-0.558105 -0.4806,-1.178222 -1.24024,-1.178222 z"
         style="fill:#4e4e4e;fill-opacity:1"
         id="path4807"
         inkscape:export-filename="/home/jtp/git/voila-gallery/gallery/tljh-voila-gallery/tljh_voila_gallery/static/voila-logo.png"
         inkscape:export-xdpi="43"
         inkscape:export-ydpi="43"
         inkscape:connector-curvature="0" />
      <path
         d="m 125.63722,92.68541 c 0,0.263549 0.15503,0.620117 0.34106,0.790649 l 5.17798,4.464844 c 0.18604,0.155029 0.89917,0.728637 1.34876,0.186035 0.29455,-0.356568 0.37207,-0.728638 -0.12403,-1.27124 l -4.89892,-4.945435 c -0.17054,-0.170532 -0.5116,-0.310059 -0.75965,-0.310059 -0.60461,0 -1.0852,0.496094 -1.0852,1.085206 z m 0.29455,7.75146 c -4.34082,0 -7.58093,3.89124 -7.58093,8.12354 0,4.2478 3.25562,8.07703 7.50342,8.07703 2.06189,0 4.01526,-1.42627 5.37952,-2.91455 v 1.76733 c 0,0.60461 0.48059,1.0852 1.0852,1.0852 0.60462,0 1.08521,-0.48059 1.08521,-1.0852 v -14.01465 c 0,-0.60461 -0.48059,-1.0852 -1.08521,-1.0852 -0.60461,0 -0.94568,0.49609 -0.94568,1.0852 l -0.13952,1.95337 c -1.31775,-1.42627 -3.08509,-2.99207 -5.30201,-2.99207 z m 5.37952,8.03052 c 0,3.02307 -2.49597,5.84461 -5.45703,5.84461 -2.94556,0 -5.17798,-2.77503 -5.17798,-5.75159 0,-3.00757 2.24793,-5.7981 5.271,-5.7981 2.97656,0 5.36401,2.71302 5.36401,5.70508 z"
         style="fill:#4e4e4e;fill-opacity:1"
         id="path4809"
         inkscape:export-filename="/home/jtp/git/voila-gallery/gallery/tljh-voila-gallery/tljh_voila_gallery/static/voila-logo.png"
         inkscape:export-xdpi="43"
         inkscape:export-ydpi="43"
         inkscape:connector-curvature="0" />
      <path
         d="m 248.50113,94.871323 h -6.8988 c -0.85267,0 -1.5503,0.697631 -1.5503,1.550293 0,0.852661 0.69763,1.550293 1.5503,1.550293 h 5.34851 l -0.031,22.680781 -5.3175,0.0155 h -0.0155 c -0.85266,0 -1.55029,0.69763 -1.55029,1.55029 0,0.85266 0.69763,1.55029 1.55029,1.55029 h 0.0155 l 6.86779,-0.0155 c 0.85266,0 1.5503,-0.69763 1.5503,-1.55029 l 0.031,-25.781374 c 0,-0.852662 -0.69763,-1.550293 -1.55029,-1.550293 z"
         style="font-style:normal;font-variant:normal;font-weight:bold;font-stretch:normal;font-family:Manjari;-inkscape-font-specification:'Manjari Bold';fill:#f37726;fill-opacity:1"
         id="path4811"
         inkscape:export-filename="/home/jtp/git/voila-gallery/gallery/tljh-voila-gallery/tljh_voila_gallery/static/voila-logo.png"
         inkscape:export-xdpi="43"
         inkscape:export-ydpi="43"
         inkscape:connector-curvature="0" />
      <g
         aria-label="gallery"
         style="font-style:normal;font-variant:normal;font-weight:normal;font-stretch:normal;font-size:30.53652763px;line-height:1.25;font-family:Manjari;-inkscape-font-specification:Manjari;letter-spacing:0px;word-spacing:0px;fill:#4e4e4e;fill-opacity:1;stroke:none;stroke-width:0.2019864"
         id="text822">
        <path
           d="m 157.4818,101.37283 c -4.1451,0 -7.24647,3.71269 -7.24647,7.75341 0,4.07054 3.13119,7.75342 7.24647,7.75342 1.92344,0 3.7276,-1.25248 5.03972,-2.59441 l -0.0149,2.23656 c -0.0597,3.04172 -2.63915,5.60631 -5.7256,5.60631 -1.69979,0 -3.4294,-0.83498 -4.48804,-2.16201 -0.17892,-0.23856 -0.59641,-0.44731 -0.89462,-0.44731 -0.61133,0 -1.11828,0.50695 -1.11828,1.11828 0,0.22366 0.11928,0.55169 0.25347,0.7157 1.50595,1.89362 3.83198,3.0119 6.24747,3.0119 4.2942,0 7.93234,-3.54867 7.96216,-7.81305 l 0.10437,-14.07543 0.0149,-0.0298 c 0,-0.61133 -0.50695,-1.11828 -1.11828,-1.11828 -0.61133,0 -1.05864,0.50695 -1.05864,1.11828 l -0.0745,1.52086 c -1.29721,-1.38667 -3.05664,-2.59441 -5.12918,-2.59441 z m 4.99498,7.75341 c 0,2.87771 -2.1471,5.51686 -4.99498,5.51686 -2.8628,0 -4.99499,-2.65406 -4.99499,-5.51686 0,-2.87771 2.10237,-5.51685 4.99499,-5.51685 2.8628,0 4.99498,2.63914 4.99498,5.51685 z"
           style="fill:#4e4e4e;fill-opacity:1;stroke-width:0.2019864"
           id="path866" />
        <path
           d="m 175.41902,101.26845 c -4.17491,0 -7.29119,3.74252 -7.29119,7.81306 0,4.08545 3.13119,7.76833 7.21664,7.76833 1.98309,0 3.8618,-1.37176 5.17391,-2.80316 v 1.69979 c 0,0.5815 0.46223,1.04372 1.04373,1.04372 0.58151,0 1.04373,-0.46222 1.04373,-1.04372 v -13.47902 c 0,-0.5815 -0.46222,-1.04373 -1.04373,-1.04373 -0.5815,0 -0.90953,0.47714 -0.90953,1.04373 l -0.1342,1.87871 c -1.26738,-1.37175 -2.96717,-2.87771 -5.09936,-2.87771 z m 5.17392,7.7236 c 0,2.90753 -2.40058,5.62122 -5.24847,5.62122 -2.83298,0 -4.98008,-2.66896 -4.98008,-5.53176 0,-2.89262 2.16201,-5.57649 5.06954,-5.57649 2.8628,0 5.15901,2.60932 5.15901,5.48703 z"
           style="fill:#4e4e4e;fill-opacity:1;stroke-width:0.2019864"
           id="path868" />
        <path
           d="m 187.24298,95.915615 c -0.56659,0 -1.04373,0.581506 -1.04373,1.163013 v 18.742392 c 0,0.65606 0.52187,1.11828 1.20775,1.11828 0.4324,0 1.02882,-0.4324 1.02882,-0.95427 V 97.048807 c 0,-0.536775 -0.46223,-1.133192 -1.19284,-1.133192 z"
           style="fill:#4e4e4e;fill-opacity:1;stroke-width:0.2019864"
           id="path870" />
        <path
           d="m 193.08786,95.915615 c -0.56659,0 -1.04373,0.581506 -1.04373,1.163013 v 18.742392 c 0,0.65606 0.52187,1.11828 1.20775,1.11828 0.4324,0 1.02881,-0.4324 1.02881,-0.95427 V 97.048807 c 0,-0.536775 -0.46222,-1.133192 -1.19283,-1.133192 z"
           style="fill:#4e4e4e;fill-opacity:1;stroke-width:0.2019864"
           id="path872" />
        <path
           d="m 205.3144,116.84984 c 2.25147,0 4.4433,-1.01391 5.8747,-2.77334 0.14911,-0.17893 0.26839,-0.50695 0.26839,-0.73061 0,-0.61133 -0.50695,-1.11828 -1.11828,-1.11828 -0.29821,0 -0.70079,0.19383 -0.87971,0.4324 -0.98409,1.20774 -2.60933,1.95326 -4.17492,1.95326 -2.77334,0 -4.89062,-2.1471 -5.35284,-4.62222 h 10.85478 c 0.87972,0 1.14811,-0.74552 1.14811,-1.66997 0,-3.87671 -3.20574,-6.99298 -6.99299,-6.99298 -4.11527,0 -7.35083,3.54867 -7.35083,7.63413 0,4.2942 3.39957,7.88761 7.72359,7.88761 z m 4.33893,-9.06554 h -9.69177 c 0.49205,-2.28129 2.44531,-4.21964 4.99499,-4.21964 2.44531,0 4.41348,1.89362 4.69678,4.21964 z"
           style="fill:#4e4e4e;fill-opacity:1;stroke-width:0.2019864"
           id="path874" />
        <path
           d="m 224.02697,102.69985 c 0,-1.11828 -1.26738,-1.44631 -2.78824,-1.44631 -1.62524,0 -3.32503,1.58051 -3.72761,2.93736 l -0.13419,-1.64015 c 0,-0.74552 -0.40258,-1.23756 -0.98409,-1.23756 -0.56659,0 -1.1481,0.50695 -1.1481,1.23756 v 13.22554 c 0,0.62623 0.37276,1.13319 1.11828,1.13319 0.74552,0 1.11828,-0.50696 1.11828,-1.13319 v -8.12618 c 0,-2.16201 0.90954,-4.2942 3.83198,-4.2942 0.77534,0 1.23756,0.4324 1.8638,0.4324 0.41749,0 0.84989,-0.55168 0.84989,-1.08846 z"
           style="fill:#4e4e4e;fill-opacity:1;stroke-width:0.2019864"
           id="path876" />
        <path
           d="m 226.05479,101.25354 c -0.61133,0 -1.11828,0.50696 -1.11828,1.11828 0,0.1342 0.0447,0.35785 0.10437,0.49205 l 6.32202,13.64303 c -0.86481,2.20674 -1.61033,5.23355 -4.33893,5.41248 -0.58151,0.0298 -1.05864,0.53677 -1.05864,1.11828 0,0.61133 0.50695,1.11828 1.11828,1.11828 2.99699,0 4.71169,-2.69879 5.57649,-4.84589 l 6.57549,-16.49091 c 0.29821,-0.77534 -0.25347,-1.55069 -1.02881,-1.55069 -0.43241,0 -0.89463,0.32803 -1.04373,0.7157 l -4.65205,11.68977 -5.4423,-11.76432 c -0.16402,-0.35785 -0.59642,-0.65606 -1.01391,-0.65606 z"
           style="fill:#4e4e4e;fill-opacity:1;stroke-width:0.2019864"
           id="path878" />
      </g>
      <path
         style="fill:#f37726;fill-opacity:1;stroke-width:0.07849849"
         d="m 142.81406,95.15258 h 0.5537 c 0.79527,0 1.43551,0.640236 1.43551,1.435506 v 26.044164 c 0,0.79527 -0.64024,1.43551 -1.43551,1.43551 h -0.5537 c -0.79527,0 -1.4355,-0.64024 -1.4355,-1.43551 V 96.588086 c 0,-0.79527 0.64023,-1.435506 1.4355,-1.435506 z"
         id="rect845" />
    </g>
  </g>
</svg>
